<svg style="object-fit:cover" id="my-svg" version="1" baseProfile="full" width="100%" height="100%" viewBox="0 0 1316 767" xmlns="http://www.w3.org/2000/svg"><rect width="1316" height="767" fill="#e85a4f"/><defs><linearGradient id="linear-gradient" x1="1" x2="0" y1="1" y2="0"><stop offset="0%" stop-color="#eae7dc80"/><stop offset="100%" stop-color="#d8c3a580"/></linearGradient></defs><path transform="scale(1, -1)" d="M 0,767 V 0,306 L 373,388 L 623,303 L 1047,221 L 1316,306 C 1316,306 1316,767 1316,767 Z" stroke="none" stroke-width="0" fill="url(#linear-gradient)" class="transition-all duration-300 ease-in-out delay-150" style="transform-origin: center center;"/><defs><linearGradient id="linear-gradient" x1="1" x2="0" y1="1" y2="0"><stop offset="0%" stop-color="#eae7dc90"/><stop offset="100%" stop-color="#d8c3a590"/></linearGradient></defs><path transform="scale(1, -1)" d="M 0,767 V 0,460 L 352,390 L 715,524 L 940,538 L 1316,460 C 1316,460 1316,767 1316,767 Z" stroke="none" stroke-width="0" fill="url(#linear-gradient)" class="transition-all duration-300 ease-in-out delay-150" style="transform-origin: center center;"/><defs><linearGradient id="linear-gradient" x1="1" x2="0" y1="1" y2="0"><stop offset="0%" stop-color="#eae7dcff"/><stop offset="100%" stop-color="#d8c3a5ff"/></linearGradient></defs><path transform="scale(1, -1)" d="M 0,767 V 0,690 L 329,718 L 634,645 L 1034,618 L 1316,690 C 1316,690 1316,767 1316,767 Z" stroke="none" stroke-width="0" fill="url(#linear-gradient)" class="transition-all duration-300 ease-in-out delay-150" style="transform-origin: center center;"/></svg>